HIERARCHY
ROOT Hips
{
  OFFSET 11.6417 92.0768 -44.6956
  CHANNELS 6 Xposition Yposition Zposition Zrotation Xrotation Yrotation
  JOINT ToSpine
  {
    OFFSET -2.69724 7.43032 -0.144315
    CHANNELS 3 Zrotation Xrotation Yrotation
    JOINT Spine
    {
      OFFSET -0.0310711 10.7595 1.96963
      CHANNELS 3 Zrotation Xrotation Yrotation
      JOINT Spine1
      {
        OFFSET 13.1342 3.43533 0.764692
        CHANNELS 3 Zrotation Xrotation Yrotation
        JOINT Neck
        {
          OFFSET 29.8703 7.82586 -0.130764
          CHANNELS 3 Zrotation Xrotation Yrotation
          JOINT Head
          {
            OFFSET 9.52751 0.295786 -0.907742
            CHANNELS 3 Zrotation Xrotation Yrotation
            End Site
            {
              OFFSET 16.4037 0.713936 2.7358
            }
          }
        }
        JOINT LeftShoulder
        {
          OFFSET 27.5574 4.95586 2.47156
          CHANNELS 3 Zrotation Xrotation Yrotation
          JOINT LeftArm
          {
            OFFSET 1.20734 -0.998971 20.1238
            CHANNELS 3 Zrotation Xrotation Yrotation
            JOINT LeftForeArm
            {
              OFFSET 26.8049 -0.0536703 -0.155908
              CHANNELS 3 Zrotation Xrotation Yrotation
              JOINT LeftHand
              {
                OFFSET 26.6817 0 0.320147
                CHANNELS 3 Zrotation Xrotation Yrotation
                End Site
                {
                  OFFSET 18.6119 0 0.382219
                }
              }
            }
          }
        }
        JOINT RightShoulder
        {
          OFFSET 27.5927 4.71444 -2.65209
          CHANNELS 3 Zrotation Xrotation Yrotation
          JOINT RightArm
          {
            OFFSET 2.83739 -1.17114 -18.7564
            CHANNELS 3 Zrotation Xrotation Yrotation
            JOINT RightForeArm
            {
              OFFSET 28.839 -0.0548439 1.22491
              CHANNELS 3 Zrotation Xrotation Yrotation
              JOINT RightHand
              {
                OFFSET 26.5114 0 -0.101894
                CHANNELS 3 Zrotation Xrotation Yrotation
                End Site
                {
                  OFFSET 18.2168 0 0
                }
              }
            }
          }
        }
      }
    }
  }
  JOINT LeftUpLeg
  {
    OFFSET -4.76168 -1.9167 -10.2353
    CHANNELS 3 Zrotation Xrotation Yrotation
    JOINT LeftLeg
    {
      OFFSET 2.55951 -42.0585 -8.02213
      CHANNELS 3 Zrotation Xrotation Yrotation
      JOINT LeftFoot
      {
        OFFSET 3.16357 -42.5282 -3.95426
        CHANNELS 3 Zrotation Xrotation Yrotation
        JOINT LeftToeBase
        {
          OFFSET 0.346054 -6.02161 12.8035
          CHANNELS 3 Zrotation Xrotation Yrotation
          End Site
          {
            OFFSET 0.134235 -1.35082 5.13018
          }
        }
      }
    }
  }
  JOINT RightUpLeg
  {
    OFFSET -4.94151 -1.41743 10.6446
    CHANNELS 3 Zrotation Xrotation Yrotation
    JOINT RightLeg
    {
      OFFSET -2.56294 -42.0364 -7.94377
      CHANNELS 3 Zrotation Xrotation Yrotation
      JOINT RightFoot
      {
        OFFSET -3.0952 -42.555 -4.02241
        CHANNELS 3 Zrotation Xrotation Yrotation
        JOINT RightToeBase
        {
          OFFSET -0.0828122 -6.13587 12.8035
          CHANNELS 3 Zrotation Xrotation Yrotation
          End Site
          {
            OFFSET -0.131328 -1.35082 5.13018
          }
        }
      }
    }
  }
}
MOTION
Frames:	10
Frame Time:	0.0333333
5.09569 84.8156 153.875 71.7434 -36.6817 -3.57772 -70.1915 0 88.8779 101.289 71.1003 -19.7729 -1.90391 19.6885 7.69039 -117.613 29.4461 158.285 170.631 72.3979 -132.761 0.802351 -12.7886 -18.7845 -80.2428 32.1131 -135.055 14.2675 -2.95965 -100.657 0.420957 0.00057487 0.35866 -2.10895 7.7638 41.4029 -119.491 -7.37646 96.3068 13.4157 -0.984011 85.6987 0.58676 0.000330477 0.0646654 -41.2879 27.5449 79.2725 -6.05281 68.8044 10.4785 -1.33732 -2.06725 -0.110637 2.01123 -7.7242 12.6778 -29.8671 -18.6886 74.7136 2.84074 51.9987 -5.08176 -2.98011 3.30202 0.493122 0.904259 -12.8506 10.1524 
4.57268 84.9115 161.42 73.2855 -36.2129 -2.74162 -70.1915 0 88.8779 108.155 70.8059 -24.5719 -2.26066 20.7872 5.34294 -119.179 30.6996 159.514 166.136 72.5178 -130.224 0.762565 -12.8937 -20.1641 -76.3108 31.6988 -133.168 15.052 -3.06711 -100.433 0.420957 0.00057487 0.35866 -2.09783 8.44791 39.0655 -121.207 -9.21206 97.5249 12.5622 -1.27122 84.1502 0.58676 0.000330477 0.0646654 -37.4776 25.0379 80.3827 -11.6758 74.3591 7.04118 -2.54823 -8.18861 -0.561222 5.69177 -13.9291 16.9626 -33.2088 -15.7137 74.3535 4.20955 56.8478 4.08366 -0.850643 -8.67325 0.810106 2.18487 -9.87913 -11.3609 
4.18468 84.9659 168.535 73.8892 -36.3472 -3.82948 -70.1915 0 88.8779 112.569 71.6046 -28.246 -2.46198 22.5424 3.82135 -120.352 32.0522 159.479 163.983 73.5604 -129.56 0.665197 -13.1033 -22.8125 -70.1164 31.2201 -129.785 18.9745 -3.21343 -98.4981 0.420957 0.00057487 0.35866 -1.89066 8.14794 37.4191 -122.969 -10.273 99.1039 13.0439 -1.62005 82.8881 0.58676 0.000330477 0.0646654 -33.1097 22.6797 87.7503 -18.1545 78.3692 11.311 -1.06376 -15.371 -1.33894 4.26119 -12.0592 18.4903 -33.9744 -15.4746 71.1172 5.13653 62.5788 -3.44556 -3.73334 -14.4844 1.31639 0.789808 -8.01818 1.71443 
3.98273 85.8579 175.301 73.4251 -36.388 -4.95782 -70.1915 0 88.8779 112.277 72.4932 -27.4898 -1.37756 23.7172 2.13452 -120.282 32.0196 156.667 166.499 74.7994 -131.995 0.709734 -12.6317 -23.6879 -64.013 31.8756 -125.908 20.0635 -2.87998 -97.0794 0.420957 0.00057487 0.35866 -1.95363 8.3063 37.72 -124.366 -10.4539 99.3918 13.5659 -1.56896 83.3668 0.58676 0.000330477 0.0646654 -29.6933 20.2909 97.2246 -18.8885 77.8735 7.25947 -1.81565 -17.6845 -1.55966 6.10016 -14.7128 19.2499 -34.8271 -14.0381 69.189 6.86014 66.0825 -0.631674 -2.38706 -15.1425 1.35161 1.82032 -10.0676 -8.66978 
4.16855 86.972 181.782 73.6867 -34.5594 -3.31713 -70.1915 0 88.8779 112.313 72.4663 -28.0216 -1.35181 23.0552 4.08596 -118.591 31.2859 152.972 170.005 75.886 -134.521 0.622427 -13.1528 -24.2494 -59.7002 32.4129 -122.23 24.6354 -2.71249 -95.1736 0.420957 0.00057487 0.35866 -1.92191 7.7062 39.2413 -124.375 -9.17787 98.1758 13.255 -0.918258 85.9488 0.58676 0.000330477 0.0646654 -27.415 17.2812 104 -16.0835 74.5131 -4.54191 -1.99599 -17.0024 -1.49643 8.87819 -18.5204 20.0509 -36.0836 -14.2528 65.3474 8.96788 70.4978 -3.31511 0.980178 -6.74994 0.410646 1.67915 -15.9361 7.17312 
4.57545 87.3887 187.652 73.897 -34.3203 -1.61612 -70.1915 0 88.8779 114.454 72.0949 -29.2584 -1.82226 22.4758 5.46446 -117.098 30.5849 152.055 170.969 75.7646 -133.721 0.548949 -13.6425 -24.3671 -58.0146 31.9045 -119.386 24.3535 -2.13066 -93.9909 0.420957 0.00057487 0.35866 -2.00748 7.19283 42.3025 -122.815 -6.6929 97.8902 14.566 -0.307298 88.4633 0.58676 0.000330477 0.0646654 -27.0577 14.7794 108.413 -13.7111 70.6443 -13.0246 -2.26167 -15.9742 -1.40572 10.4354 -20.5338 20.6551 -33.2062 -15.2557 66.4427 19.0026 77.7136 -8.83036 6.67282 7.74383 -1.61688 1.64733 -16.958 20.179 
4.7664 86.9523 193.407 74.9598 -36.3701 -1.55869 -70.1915 0 88.8779 117.801 71.7276 -32.649 -1.6139 22.59 5.61459 -118.181 30.7403 154.01 172.297 75.2124 -134.553 0.632211 -13.2391 -23.4114 -58.7143 30.8444 -118.723 26.2039 -2.26327 -93.8759 0.420957 0.00057487 0.35866 -2.09947 7.33155 42.9706 -121.047 -7.17266 97.6614 16.154 -0.0265285 89.8665 0.58676 0.000330477 0.0646654 -29.0457 13.3827 109.412 -10.2903 68.8323 -7.46019 -2.99501 -20.0279 -1.82826 4.29216 -12.2569 18.8093 -28.848 -16.2978 71.7838 29.6712 81.5948 -16.4693 -3.00259 9.03131 -0.102242 2.0472 -15.0379 -1.90715 
4.82647 85.707 199.231 74.852 -38.3247 -3.04213 -70.1915 0 88.8779 114.919 72.165 -30.7434 -1.30397 22.7898 4.96875 -117.8 30.1745 154.98 174.301 74.6499 -136.803 0.702991 -12.9626 -22.2657 -62.3909 29.4344 -119.057 23.4846 -2.31728 -94.6005 0.420957 0.00057487 0.35866 -2.1652 7.329 43.8806 -119.418 -8.30062 97.0565 16.2694 0.174893 90.3265 0.58676 0.000330477 0.0646654 -29.3721 12.9937 104.14 -10.9799 71.4672 2.50514 -0.455444 -24.3313 -2.13267 0.287829 -5.66511 15.3712 -23.8005 -19.6027 76.4449 5.20076 77.4999 -19.6795 -12.2556 0.92159 1.85988 0.633344 -12.3041 13.277 
5.23691 84.8413 204.777 74.4283 -40.6577 -3.36743 -70.1915 0 88.8779 112.125 72.4866 -26.7225 -0.517795 23.1006 3.46178 -116.935 28.9413 154.17 179.541 74.3605 -142.244 0.841374 -12.0032 -20.8059 -66.5882 27.6001 -121.068 22.6888 -2.38737 -94.964 0.420957 0.00057487 0.35866 -2.30599 7.17712 46.3715 -118.146 -8.36118 96.4633 14.2743 0.17545 90.4193 0.58676 0.000330477 0.0646654 -30.2685 13.9672 98.4781 -14.2781 74.4682 1.72079 1.59681 -22.593 -1.78665 5.11202 -13.4602 20.8785 -21.8782 -20.8989 79.8739 3.61166 63.6051 -11.2455 -5.30744 -0.459954 0.831586 2.09916 -11.4931 -10.7418 
5.4476 84.3156 210.771 74.0044 -41.8794 -4.62796 -70.1915 0 88.8779 108.295 73.0393 -23.9408 -0.0492466 22.9048 4.44331 -118.265 29.9941 156.494 176.934 74.229 -140.522 0.817111 -12.1316 -21.4642 -71.7049 26.8721 -122.277 20.2681 -2.65184 -96.4078 0.420957 0.00057487 0.35866 -2.28764 7.38349 45.2521 -118.104 -9.26932 94.0929 13.8277 0.452234 91.6258 0.58676 0.000330477 0.0646654 -33.3489 17.7588 99.5724 -12.2542 73.8491 4.76683 3.69294 -25.2526 -1.78833 4.19034 -11.831 17.5088 -22.0222 -23.5048 80.7495 0.705849 46.9455 -8.90668 -3.7859 4.13573 0.469238 1.66834 -10.0022 -6.10106 
